<svg width="326" height="365" viewBox="0 0 326 365" fill="none" xmlns="http://www.w3.org/2000/svg">
<g opacity="0.3">
<path d="M-102.579 316.754C-41.2406 386.473 96.4147 365.62 204.87 270.2C313.338 174.769 351.553 40.8908 290.215 -28.8279L295.996 -22.2563C357.335 47.4624 319.12 181.341 210.652 276.772C102.196 372.191 -35.459 393.044 -96.7978 323.326L-102.579 316.754Z" fill="#1C1D22"/>
<path d="M-114.142 303.612C-52.8031 373.331 84.8523 352.478 193.308 257.058C301.776 161.627 339.991 27.7488 278.652 -41.9699L284.434 -35.3984C345.773 34.3203 307.558 168.199 199.089 263.63C90.6339 359.049 -47.0214 379.902 -108.36 310.184L-114.142 303.612Z" fill="#1C1D22"/>
<path d="M-125.705 290.469C-64.3665 360.188 73.2889 339.335 181.744 243.915C290.213 148.484 328.428 14.6059 267.089 -55.1128L272.87 -48.5413C334.209 21.1774 295.994 155.056 187.526 250.487C79.0705 345.906 -58.5848 366.76 -119.924 297.041L-125.705 290.469Z" fill="#1C1D22"/>
<path d="M-45.2603 -14.1004C-86.8297 22.4725 -118.09 64.6709 -137.4 106.718L86.3095 -90.1019C42.145 -76.3044 -3.69096 -50.6733 -45.2603 -14.1004Z" fill="#1C1D22"/>
<path d="M145.604 -101.553L-156.297 164.061C-159.257 179.15 -160.471 193.864 -159.836 207.889L189.539 -99.4921C175.695 -101.874 160.959 -102.555 145.604 -101.553Z" fill="#1C1D22"/>
<path d="M223.915 -89.0029L-153.822 243.332C-150.619 253.624 -146.104 263.275 -140.303 272.153L250.779 -71.9231C242.712 -78.8071 233.702 -84.5039 223.915 -89.0029Z" fill="#1C1D22"/>
<path d="M-93.4218 312.337L284.656 -20.2968C281.402 -30.5443 276.861 -40.173 271.023 -49.0174L-120.172 295.158C-112.143 302.075 -103.171 307.805 -93.4218 312.337Z" fill="#1C1D22"/>
<path d="M-15.4489 325.187L287.471 58.6763C290.358 43.6295 291.497 28.9818 290.821 15.0141L-59.1822 322.949C-45.4143 325.397 -30.7408 326.134 -15.4489 325.187Z" fill="#1C1D22"/>
<path d="M176.259 237.683C218.206 200.777 249.661 158.14 268.924 115.709L43.4774 314.058C88.016 300.356 134.312 274.588 176.259 237.683Z" fill="#1C1D22"/>
</g>
</svg>
