<svg width="256" height="381" viewBox="0 0 256 381" fill="none" xmlns="http://www.w3.org/2000/svg">
<g opacity="0.3">
<path d="M160.133 523.174C250.881 542.872 349.284 444.379 379.926 303.211C410.571 162.026 361.857 31.6001 271.109 11.9025L279.663 13.7592C370.411 33.4568 419.125 163.882 388.479 305.067C357.838 446.236 259.435 544.728 168.687 525.031L160.133 523.174Z" fill="#1C1D22"/>
<path d="M143.027 519.461C233.775 539.159 332.178 440.666 362.82 299.498C393.465 158.313 344.751 27.8871 254.003 8.18952L262.557 10.0462C353.305 29.7437 402.019 160.169 371.373 301.354C340.732 442.523 242.329 541.015 151.581 521.318L143.027 519.461Z" fill="#1C1D22"/>
<path d="M125.92 515.748C216.668 535.446 315.07 436.953 345.712 295.784C376.358 154.599 327.644 24.174 236.896 4.47641L245.45 6.33305C336.197 26.0307 384.912 156.456 354.266 297.641C323.624 438.81 225.221 537.302 134.474 517.605L125.92 515.748Z" fill="#1C1D22"/>
<path d="M9.87111 222.888C-1.87345 276.996 -1.98216 329.512 7.43666 374.812L70.6411 83.6264C43.2889 120.946 21.6157 168.78 9.87111 222.888Z" fill="#1C1D22"/>
<path d="M111.562 39.2147L26.2665 432.177C32.8407 446.078 40.5978 458.64 49.4343 469.549L148.143 14.7941C135.588 21.0943 123.324 29.2936 111.562 39.2147Z" fill="#1C1D22"/>
<path d="M182.034 2.83005L75.3122 494.503C83.9992 500.885 93.3618 505.971 103.3 509.672L213.792 0.629352C203.214 -0.122439 192.581 0.641048 182.034 2.83005Z" fill="#1C1D22"/>
<path d="M164.881 514.184L271.699 22.0679C262.998 15.7523 253.629 10.6987 243.68 7.0465L133.156 516.237C143.723 517.038 154.345 516.323 164.881 514.184Z" fill="#1C1D22"/>
<path d="M235.259 478.241L320.843 83.9517C314.234 70.1289 306.456 57.665 297.622 46.8251L198.735 502.399C211.269 496.197 223.515 488.08 235.259 478.241Z" fill="#1C1D22"/>
<path d="M337.598 294.025C349.45 239.425 349.454 186.441 339.77 140.86L276.075 434.307C303.785 396.842 325.747 348.624 337.598 294.025Z" fill="#1C1D22"/>
</g>
</svg>
